<svg width="101" height="100" viewBox="0 0 101 100" fill="none" xmlns="http://www.w3.org/2000/svg">
<circle cx="50.5" cy="50" r="50" fill="#2C2E34"/>
<path d="M50 46.5518C54.5563 46.5518 58.25 42.8465 58.25 38.2759C58.25 33.7052 54.5563 30 50 30C45.4437 30 41.75 33.7052 41.75 38.2759C41.75 42.8465 45.4437 46.5518 50 46.5518Z" fill="#454751"/>
<path d="M50 50.6896C54.3761 50.6896 58.5729 52.2155 61.6673 54.9315C64.7616 57.6476 66.5 61.3313 66.5 65.1724V70H33.5V65.1724C33.5 61.3313 35.2384 57.6476 38.3327 54.9315C41.4271 52.2155 45.6239 50.6896 50 50.6896V50.6896Z" fill="#454751"/>
</svg>
