<svg width="18" height="20" viewBox="0 0 18 20" fill="none" xmlns="http://www.w3.org/2000/svg">
<path fill-rule="evenodd" clip-rule="evenodd" d="M1 5.49969L5.19971 1H16.75V19H1V5.49969Z" fill="currentColor"/>
<path d="M5.19971 1V0.35H4.91725L4.72452 0.556493L5.19971 1ZM1 5.49969L0.524814 5.05618L0.35 5.24348V5.49969H1ZM16.75 1H17.4V0.35H16.75V1ZM16.75 19V19.65H17.4V19H16.75ZM1 19H0.35V19.65H1V19ZM4.72452 0.556493L0.524814 5.05618L1.47519 5.94319L5.67489 1.44351L4.72452 0.556493ZM5.19971 1.65H16.75V0.35H5.19971V1.65ZM16.1 1V19H17.4V1H16.1ZM16.75 18.35H1V19.65H16.75V18.35ZM1.65 19V5.49969H0.35V19H1.65Z" fill="#17171B"/>
<path d="M5.5 7.75L12.25 7.75" stroke="#17171B" stroke-width="1.6875"/>
<path d="M5.5 12.25L12.25 12.25" stroke="#17171B" stroke-width="1.6875"/>
</svg>
