<svg width="22" height="22" viewBox="0 0 22 22" fill="none" xmlns="http://www.w3.org/2000/svg">
<circle cx="11" cy="11" r="10.5" fill="currentColor" stroke="#17171B"/>
<mask id="mask0_2084_4650" style="mask-type:alpha" maskUnits="userSpaceOnUse" x="0" y="0" width="22" height="22">
<circle cx="11" cy="11" r="10.5" fill="currentColor" stroke="#17171B"/>
</mask>
<g mask="url(#mask0_2084_4650)">
<path d="M10.9989 13.2557C12.8639 13.2557 14.373 11.7395 14.373 9.87262C14.373 8.00571 12.8639 6.48955 10.9989 6.48955C9.13393 6.48955 7.6248 8.00571 7.6248 9.87262C7.6248 11.7395 9.13393 13.2557 10.9989 13.2557Z" fill="#17171B" stroke="#17171B" stroke-width="1.02091"/>
<path d="M10.4883 13.6897C9.03863 13.7953 7.66292 14.3482 6.61223 15.2704C5.43672 16.3022 4.76103 17.717 4.76103 19.2087V20.8844V21.3949H5.27148H16.726H17.2365V20.8844V19.2087C17.2365 17.717 16.5608 16.3022 15.3853 15.2704C14.2119 14.2405 12.6332 13.6712 10.9988 13.6712H10.4883V13.6897Z" fill="#17171B" stroke="#17171B" stroke-width="1.02091"/>
</g>
</svg>
