<svg width="72" height="72" viewBox="0 0 72 72" fill="none" xmlns="http://www.w3.org/2000/svg">
<circle cx="36" cy="36" r="36" fill="#2C2E34"/>
<path d="M35.6392 33.5188C38.9198 33.5188 41.5792 30.8511 41.5792 27.5602C41.5792 24.2693 38.9198 21.6016 35.6392 21.6016C32.3586 21.6016 29.6992 24.2693 29.6992 27.5602C29.6992 30.8511 32.3586 33.5188 35.6392 33.5188Z" fill="#454751"/>
<path d="M35.6393 36.4976C38.79 36.4976 41.8118 37.5962 44.0397 39.5517C46.2676 41.5073 47.5193 44.1596 47.5193 46.9252V50.401H23.7593V46.9252C23.7593 44.1596 25.0109 41.5073 27.2388 39.5517C29.4668 37.5962 32.4885 36.4976 35.6393 36.4976V36.4976Z" fill="#454751"/>
</svg>
