<svg width="44" height="45" viewBox="0 0 44 45" fill="none" xmlns="http://www.w3.org/2000/svg">
<g filter="url(#filter0_d_114_5271)">
<circle cx="22" cy="24" r="16" fill="#2C2E34"/>
<path d="M21.8397 22.8971C23.2977 22.8971 24.4797 21.7115 24.4797 20.2489C24.4797 18.7863 23.2977 17.6006 21.8397 17.6006C20.3817 17.6006 19.1997 18.7863 19.1997 20.2489C19.1997 21.7115 20.3817 22.8971 21.8397 22.8971Z" fill="#454751"/>
<path d="M21.8401 24.2212C23.2404 24.2212 24.5834 24.7095 25.5736 25.5786C26.5638 26.4477 27.1201 27.6265 27.1201 28.8557V30.4005H16.5601V28.8557C16.5601 27.6265 17.1163 26.4477 18.1065 25.5786C19.0967 24.7095 20.4397 24.2212 21.8401 24.2212V24.2212Z" fill="#454751"/>
</g>
<defs>
<filter id="filter0_d_114_5271" x="0.24" y="0.96" width="43.52" height="43.52" filterUnits="userSpaceOnUse" color-interpolation-filters="sRGB">
<feFlood flood-opacity="0" result="BackgroundImageFix"/>
<feColorMatrix in="SourceAlpha" type="matrix" values="0 0 0 0 0 0 0 0 0 0 0 0 0 0 0 0 0 0 127 0" result="hardAlpha"/>
<feOffset dy="-1.28"/>
<feGaussianBlur stdDeviation="2.88"/>
<feComposite in2="hardAlpha" operator="out"/>
<feColorMatrix type="matrix" values="0 0 0 0 0.172549 0 0 0 0 0.180392 0 0 0 0 0.203922 0 0 0 0.2 0"/>
<feBlend mode="normal" in2="BackgroundImageFix" result="effect1_dropShadow_114_5271"/>
<feBlend mode="normal" in="SourceGraphic" in2="effect1_dropShadow_114_5271" result="shape"/>
</filter>
</defs>
</svg>
