<svg width="14" height="16" viewBox="0 0 14 16" fill="none" xmlns="http://www.w3.org/2000/svg">
<path d="M9.35 1.59961H4.65V0.849609H3.35V1.59961H1C0.585786 1.59961 0.25 1.9354 0.25 2.34961V14.3496C0.25 14.7638 0.585787 15.0996 1 15.0996H13C13.4142 15.0996 13.75 14.7638 13.75 14.3496V2.34961C13.75 1.9354 13.4142 1.59961 13 1.59961H10.65V0.849609H9.35V1.59961ZM3.35 3.84961H4.65V2.89961H9.35V3.84961H10.65V2.89961H12.45V4.69961H1.55V2.89961H3.35V3.84961ZM1.55 5.99961H12.45V13.7996H1.55V5.99961Z" fill="white"/>
</svg>
