<svg width="17" height="14" viewBox="0 0 17 14" fill="none" xmlns="http://www.w3.org/2000/svg">
<mask id="path-1-inside-1_2507_5643" fill="white">
<path fill-rule="evenodd" clip-rule="evenodd" d="M12.2852 0H4.12864L3.02098 3.12157H0V13.1914H16.3131V3.12157H13.3928L12.2852 0Z"/>
</mask>
<path d="M4.12864 0V-1.3H3.21051L2.90348 -0.434733L4.12864 0ZM12.2852 0L13.5103 -0.434733L13.2033 -1.3H12.2852V0ZM3.02098 3.12157V4.42157H3.93911L4.24614 3.55631L3.02098 3.12157ZM0 3.12157V1.82157H-1.3V3.12157H0ZM0 13.1914H-1.3V14.4914H0V13.1914ZM16.3131 13.1914V14.4914H17.6131V13.1914H16.3131ZM16.3131 3.12157H17.6131V1.82157H16.3131V3.12157ZM13.3928 3.12157L12.1677 3.55631L12.4747 4.42157H13.3928V3.12157ZM4.12864 1.3H12.2852V-1.3H4.12864V1.3ZM4.24614 3.55631L5.35379 0.434733L2.90348 -0.434733L1.79583 2.68684L4.24614 3.55631ZM0 4.42157H3.02098V1.82157H0V4.42157ZM1.3 13.1914V3.12157H-1.3V13.1914H1.3ZM16.3131 11.8914H0V14.4914H16.3131V11.8914ZM15.0131 3.12157V13.1914H17.6131V3.12157H15.0131ZM13.3928 4.42157H16.3131V1.82157H13.3928V4.42157ZM11.06 0.434733L12.1677 3.55631L14.618 2.68684L13.5103 -0.434733L11.06 0.434733Z" fill="white" mask="url(#path-1-inside-1_2507_5643)"/>
<circle cx="8.10596" cy="7.50195" r="2.42129" stroke="white" stroke-width="1.3"/>
</svg>
