<svg width="96" height="23" viewBox="0 0 96 23" fill="none" xmlns="http://www.w3.org/2000/svg">
<path fill-rule="evenodd" clip-rule="evenodd" d="M0.854004 17.0298L2.88335 5.7217H5.93961L4.42324 14.1697H11.3735C13.1848 14.1697 14.0988 13.384 14.4075 11.4406L15.8046 5.45215C16.1673 3.44079 14.8403 2.86014 13.488 2.86014H6.45325L6.4531 2.86093H3.39674L3.91016 0H14.7036C17.5211 0 19.4136 2.46404 18.6566 5.45215L17.0908 13.384C16.4636 15.9271 14.5169 17.0298 11.5154 17.0298H0.854004ZM22.9742 17.0298C20.8549 17.0298 19.4272 15.96 19.8288 13.733L20.1188 12.0956C20.5203 9.86858 22.2625 9.05328 24.3817 9.05328H31.1283L31.2377 8.53676C31.4608 7.3141 31.1708 6.89927 29.9319 6.89927H21.5312L21.9997 4.36663H30.7622C33.1846 4.36663 34.6061 5.32728 34.2046 7.55426L33.0892 13.733C32.6877 15.96 30.606 17.0298 28.4868 17.0298H22.9742ZM28.7686 14.4972C29.9286 14.4972 30.4047 14.0169 30.65 12.5977L30.8731 11.2952H24.6919C23.7996 11.2952 22.8256 11.6009 22.6472 12.5615L22.5803 13.1217C22.3795 14.1915 22.9818 14.4972 23.9856 14.4972H28.7686ZM46.4661 8.53676L44.9492 17.0298H47.7377L49.4331 7.5761C49.8346 5.34912 48.4069 4.36663 46.2877 4.36663H40.9263C38.807 4.36663 37.0224 5.30545 36.6209 7.53243L34.9255 17.0298H37.714L39.2309 8.53676C39.454 7.33593 40.1901 6.9211 41.2163 6.9211H44.9269C46.0646 6.9211 46.6892 7.33593 46.4661 8.53676ZM59.0372 17.0298H50.415L50.8611 14.4972H58.7918C59.7956 14.4972 60.5095 14.1697 60.6879 13.078C60.8664 12.1611 60.1525 11.8554 59.2602 11.8554H54.9435C52.6458 11.8554 51.4411 10.6109 51.865 8.31842L51.9988 7.55426C52.4004 5.32728 54.185 4.36663 56.3042 4.36663H64.8595L64.391 6.9211H56.5273C55.6127 6.9211 54.8542 7.20493 54.6758 8.14376C54.5196 9.03892 55.2111 9.32275 56.1035 9.32275H60.4202C62.5395 9.32275 63.9895 10.2834 63.5879 12.5104L63.3649 13.733C62.9633 15.96 61.1564 17.0298 59.0372 17.0298ZM68.8032 12.8816L70.3424 4.36663H67.554L65.8586 13.733C65.457 15.96 66.8847 17.0298 69.004 17.0298H74.312C76.4312 17.0298 78.2159 15.96 78.6174 13.733L80.3128 4.36663H77.5243L75.9851 12.8816C75.762 14.0824 75.0035 14.4972 73.9997 14.4972H70.3424C69.1824 14.4972 68.5801 14.0824 68.8032 12.8816ZM83.2471 17.1571L82.1554 23H79.367L82.1554 7.66343C82.557 5.43645 84.3639 4.36663 86.4831 4.36663H92.8085C94.9277 4.36663 96.3331 5.43645 95.9316 7.66343L94.8162 13.8422C94.4147 16.0692 92.6524 17.0298 90.5331 17.0298H87.0417L87.5031 14.4972H89.8639C90.9347 14.4972 91.9385 14.3444 92.2062 12.8597L92.987 8.51492C93.21 7.33593 92.5854 6.89927 91.5593 6.89927H86.907C85.747 6.89927 85.0108 7.33593 84.7878 8.51492L83.717 14.4972H83.7187L83.2407 17.1571H83.2471Z" fill="white"/>
</svg>
