<svg width="32" height="32" viewBox="0 0 32 32" fill="none" xmlns="http://www.w3.org/2000/svg">
<circle cx="16" cy="16" r="16" fill="#202026"/>
<mask id="path-2-inside-1_7_3220" fill="white">
<path fill-rule="evenodd" clip-rule="evenodd" d="M15.8339 9.42859L24 9.42859V11.1429L15.8339 11.1429C15.4948 11.9805 14.6736 12.5714 13.7143 12.5714C12.7551 12.5714 11.9338 11.9805 11.5948 11.1429L8 11.1429V9.42859L11.5947 9.42859C11.9338 8.59091 12.7551 8 13.7143 8C14.6736 8 15.4948 8.59091 15.8339 9.42859ZM8 16.8571L16.1662 16.8571C16.5052 17.6948 17.3265 18.2857 18.2857 18.2857C19.245 18.2857 20.0662 17.6948 20.4053 16.8571H24V15.1429L20.4053 15.1429C20.0662 14.3052 19.245 13.7143 18.2857 13.7143C17.3265 13.7143 16.5052 14.3052 16.1661 15.1429L8 15.1429V16.8571ZM8 22.5714V20.8571H11.5947C11.9338 20.0195 12.7551 19.4285 13.7143 19.4285C14.6736 19.4285 15.4948 20.0195 15.8339 20.8571L24 20.8571V22.5714L15.8339 22.5714C15.4948 23.4091 14.6736 24 13.7143 24C12.7551 24 11.9338 23.4091 11.5948 22.5714H8Z"/>
</mask>
<path fill-rule="evenodd" clip-rule="evenodd" d="M15.8339 9.42859L24 9.42859V11.1429L15.8339 11.1429C15.4948 11.9805 14.6736 12.5714 13.7143 12.5714C12.7551 12.5714 11.9338 11.9805 11.5948 11.1429L8 11.1429V9.42859L11.5947 9.42859C11.9338 8.59091 12.7551 8 13.7143 8C14.6736 8 15.4948 8.59091 15.8339 9.42859ZM8 16.8571L16.1662 16.8571C16.5052 17.6948 17.3265 18.2857 18.2857 18.2857C19.245 18.2857 20.0662 17.6948 20.4053 16.8571H24V15.1429L20.4053 15.1429C20.0662 14.3052 19.245 13.7143 18.2857 13.7143C17.3265 13.7143 16.5052 14.3052 16.1661 15.1429L8 15.1429V16.8571ZM8 22.5714V20.8571H11.5947C11.9338 20.0195 12.7551 19.4285 13.7143 19.4285C14.6736 19.4285 15.4948 20.0195 15.8339 20.8571L24 20.8571V22.5714L15.8339 22.5714C15.4948 23.4091 14.6736 24 13.7143 24C12.7551 24 11.9338 23.4091 11.5948 22.5714H8Z" fill="#17171B"/>
<path d="M24 9.42859H25.1429V8.28573L24 8.28573V9.42859ZM15.8339 9.42859L14.7745 9.8574L15.0636 10.5714H15.8339V9.42859ZM24 11.1429V12.2857H25.1429V11.1429H24ZM15.8339 11.1429V10L15.0636 10L14.7745 10.714L15.8339 11.1429ZM11.5948 11.1429L12.6541 10.714L12.3651 10H11.5948V11.1429ZM8 11.1429H6.85714V12.2857H8L8 11.1429ZM8 9.42859L8 8.28573L6.85714 8.28573V9.42859H8ZM11.5947 9.42859V10.5714L12.3651 10.5714L12.6541 9.8574L11.5947 9.42859ZM16.1662 16.8571L17.2255 16.4283L16.9365 15.7143H16.1662V16.8571ZM8 16.8571H6.85714V18H8L8 16.8571ZM20.4053 16.8571V15.7143H19.635L19.3459 16.4283L20.4053 16.8571ZM24 16.8571V18H25.1429V16.8571H24ZM24 15.1429H25.1429V14L24 14V15.1429ZM20.4053 15.1429L19.3459 15.5717L19.635 16.2857H20.4053V15.1429ZM16.1661 15.1429V16.2857H16.9365L17.2255 15.5717L16.1661 15.1429ZM8 15.1429L8 14H6.85714V15.1429H8ZM8 20.8571V19.7143H6.85714V20.8571H8ZM8 22.5714H6.85714V23.7143H8V22.5714ZM11.5947 20.8571V22H12.3651L12.6541 21.2859L11.5947 20.8571ZM15.8339 20.8571L14.7745 21.2859L15.0636 22H15.8339V20.8571ZM24 20.8571H25.1429V19.7143H24V20.8571ZM24 22.5714V23.7143L25.1429 23.7143V22.5714H24ZM15.8339 22.5714V21.4286H15.0636L14.7745 22.1426L15.8339 22.5714ZM11.5948 22.5714L12.6541 22.1426L12.3651 21.4286H11.5948V22.5714ZM24 8.28573L15.8339 8.28573V10.5714L24 10.5714V8.28573ZM25.1429 11.1429V9.42859H22.8571V11.1429H25.1429ZM15.8339 12.2857L24 12.2857V10L15.8339 10V12.2857ZM13.7143 13.7143C15.155 13.7143 16.3855 12.8261 16.8932 11.5717L14.7745 10.714C14.6041 11.135 14.1921 11.4286 13.7143 11.4286V13.7143ZM10.5354 11.5717C11.0432 12.8261 12.2736 13.7143 13.7143 13.7143V11.4286C13.2365 11.4286 12.8245 11.135 12.6541 10.714L10.5354 11.5717ZM8 12.2857H11.5948V10L8 10L8 12.2857ZM6.85714 9.42859V11.1429H9.14286V9.42859H6.85714ZM11.5947 8.28573L8 8.28573L8 10.5714L11.5947 10.5714V8.28573ZM13.7143 6.85714C12.2736 6.85714 11.0431 7.74537 10.5354 8.99978L12.6541 9.8574C12.8245 9.43645 13.2365 9.14286 13.7143 9.14286V6.85714ZM16.8932 8.99978C16.3855 7.74537 15.155 6.85714 13.7143 6.85714V9.14286C14.1921 9.14286 14.6041 9.43645 14.7745 9.8574L16.8932 8.99978ZM16.1662 15.7143L8 15.7143L8 18L16.1662 18V15.7143ZM18.2857 17.1428C17.8079 17.1428 17.3959 16.8493 17.2255 16.4283L15.1068 17.286C15.6146 18.5403 16.845 19.4286 18.2857 19.4286V17.1428ZM19.3459 16.4283C19.1755 16.8493 18.7635 17.1428 18.2857 17.1428V19.4286C19.7264 19.4286 20.9569 18.5403 21.4646 17.286L19.3459 16.4283ZM24 15.7143H20.4053V18H24V15.7143ZM22.8571 15.1429V16.8571H25.1429V15.1429H22.8571ZM20.4053 16.2857H24V14L20.4053 14V16.2857ZM18.2857 14.8571C18.7635 14.8571 19.1755 15.1507 19.3459 15.5717L21.4646 14.714C20.9569 13.4596 19.7264 12.5714 18.2857 12.5714V14.8571ZM17.2255 15.5717C17.3959 15.1507 17.8079 14.8571 18.2857 14.8571V12.5714C16.845 12.5714 15.6145 13.4596 15.1068 14.714L17.2255 15.5717ZM8 16.2857L16.1661 16.2857V14L8 14L8 16.2857ZM9.14286 16.8571V15.1429H6.85714V16.8571H9.14286ZM6.85714 20.8571V22.5714H9.14286V20.8571H6.85714ZM11.5947 19.7143H8V22H11.5947V19.7143ZM12.6541 21.2859C12.8245 20.865 13.2365 20.5714 13.7143 20.5714V18.2857C12.2736 18.2857 11.0431 19.1739 10.5354 20.4283L12.6541 21.2859ZM13.7143 20.5714C14.1921 20.5714 14.6041 20.865 14.7745 21.2859L16.8932 20.4283C16.3855 19.1739 15.155 18.2857 13.7143 18.2857V20.5714ZM24 19.7143L15.8339 19.7143V22L24 22V19.7143ZM25.1429 22.5714V20.8571H22.8571V22.5714H25.1429ZM15.8339 23.7143L24 23.7143V21.4286L15.8339 21.4286V23.7143ZM14.7745 22.1426C14.6041 22.5635 14.1921 22.8571 13.7143 22.8571V25.1428C15.155 25.1428 16.3855 24.2546 16.8932 23.0002L14.7745 22.1426ZM13.7143 22.8571C13.2365 22.8571 12.8245 22.5635 12.6541 22.1426L10.5354 23.0002C11.0432 24.2546 12.2736 25.1428 13.7143 25.1428V22.8571ZM8 23.7143H11.5948V21.4286H8V23.7143Z" fill="white" mask="url(#path-2-inside-1_7_3220)"/>
</svg>
