<svg width="34" height="33" viewBox="0 0 34 33" fill="none" xmlns="http://www.w3.org/2000/svg">
<circle cx="16" cy="17" r="16" fill="#202026"/>
<mask id="path-2-inside-1_1560_3677" fill="white">
<path fill-rule="evenodd" clip-rule="evenodd" d="M15.8339 10.4286L24 10.4286V12.1429L15.8339 12.1429C15.4948 12.9805 14.6736 13.5714 13.7143 13.5714C12.7551 13.5714 11.9338 12.9805 11.5948 12.1429L8 12.1429V10.4286L11.5947 10.4286C11.9338 9.59091 12.7551 9 13.7143 9C14.6736 9 15.4948 9.59091 15.8339 10.4286ZM8 17.8571L16.1662 17.8571C16.5052 18.6948 17.3265 19.2857 18.2857 19.2857C19.245 19.2857 20.0662 18.6948 20.4053 17.8571H24V16.1429L20.4053 16.1429C20.0662 15.3052 19.245 14.7143 18.2857 14.7143C17.3265 14.7143 16.5052 15.3052 16.1661 16.1429L8 16.1429V17.8571ZM8 23.5714V21.8571H11.5947C11.9338 21.0195 12.7551 20.4285 13.7143 20.4285C14.6736 20.4285 15.4948 21.0195 15.8339 21.8571L24 21.8571V23.5714L15.8339 23.5714C15.4948 24.4091 14.6736 25 13.7143 25C12.7551 25 11.9338 24.4091 11.5948 23.5714H8Z"/>
</mask>
<path fill-rule="evenodd" clip-rule="evenodd" d="M15.8339 10.4286L24 10.4286V12.1429L15.8339 12.1429C15.4948 12.9805 14.6736 13.5714 13.7143 13.5714C12.7551 13.5714 11.9338 12.9805 11.5948 12.1429L8 12.1429V10.4286L11.5947 10.4286C11.9338 9.59091 12.7551 9 13.7143 9C14.6736 9 15.4948 9.59091 15.8339 10.4286ZM8 17.8571L16.1662 17.8571C16.5052 18.6948 17.3265 19.2857 18.2857 19.2857C19.245 19.2857 20.0662 18.6948 20.4053 17.8571H24V16.1429L20.4053 16.1429C20.0662 15.3052 19.245 14.7143 18.2857 14.7143C17.3265 14.7143 16.5052 15.3052 16.1661 16.1429L8 16.1429V17.8571ZM8 23.5714V21.8571H11.5947C11.9338 21.0195 12.7551 20.4285 13.7143 20.4285C14.6736 20.4285 15.4948 21.0195 15.8339 21.8571L24 21.8571V23.5714L15.8339 23.5714C15.4948 24.4091 14.6736 25 13.7143 25C12.7551 25 11.9338 24.4091 11.5948 23.5714H8Z" fill="#17171B"/>
<path d="M24 10.4286H25.1429V9.28573L24 9.28573V10.4286ZM15.8339 10.4286L14.7745 10.8574L15.0636 11.5714H15.8339V10.4286ZM24 12.1429V13.2857H25.1429V12.1429H24ZM15.8339 12.1429V11L15.0636 11L14.7745 11.714L15.8339 12.1429ZM11.5948 12.1429L12.6541 11.714L12.3651 11H11.5948V12.1429ZM8 12.1429H6.85714V13.2857H8L8 12.1429ZM8 10.4286L8 9.28573L6.85714 9.28573V10.4286H8ZM11.5947 10.4286V11.5714L12.3651 11.5714L12.6541 10.8574L11.5947 10.4286ZM16.1662 17.8571L17.2255 17.4283L16.9365 16.7143H16.1662V17.8571ZM8 17.8571H6.85714V19H8L8 17.8571ZM20.4053 17.8571V16.7143H19.635L19.3459 17.4283L20.4053 17.8571ZM24 17.8571V19H25.1429V17.8571H24ZM24 16.1429H25.1429V15L24 15V16.1429ZM20.4053 16.1429L19.3459 16.5717L19.635 17.2857H20.4053V16.1429ZM16.1661 16.1429V17.2857H16.9365L17.2255 16.5717L16.1661 16.1429ZM8 16.1429L8 15H6.85714V16.1429H8ZM8 21.8571V20.7143H6.85714V21.8571H8ZM8 23.5714H6.85714V24.7143H8V23.5714ZM11.5947 21.8571V23H12.3651L12.6541 22.2859L11.5947 21.8571ZM15.8339 21.8571L14.7745 22.2859L15.0636 23H15.8339V21.8571ZM24 21.8571H25.1429V20.7143H24V21.8571ZM24 23.5714V24.7143L25.1429 24.7143V23.5714H24ZM15.8339 23.5714V22.4286H15.0636L14.7745 23.1426L15.8339 23.5714ZM11.5948 23.5714L12.6541 23.1426L12.3651 22.4286H11.5948V23.5714ZM24 9.28573L15.8339 9.28573V11.5714L24 11.5714V9.28573ZM25.1429 12.1429V10.4286H22.8571V12.1429H25.1429ZM15.8339 13.2857L24 13.2857V11L15.8339 11V13.2857ZM13.7143 14.7143C15.155 14.7143 16.3855 13.8261 16.8932 12.5717L14.7745 11.714C14.6041 12.135 14.1921 12.4286 13.7143 12.4286V14.7143ZM10.5354 12.5717C11.0432 13.8261 12.2736 14.7143 13.7143 14.7143V12.4286C13.2365 12.4286 12.8245 12.135 12.6541 11.714L10.5354 12.5717ZM8 13.2857H11.5948V11L8 11L8 13.2857ZM6.85714 10.4286V12.1429H9.14286V10.4286H6.85714ZM11.5947 9.28573L8 9.28573L8 11.5714L11.5947 11.5714V9.28573ZM13.7143 7.85714C12.2736 7.85714 11.0431 8.74537 10.5354 9.99978L12.6541 10.8574C12.8245 10.4365 13.2365 10.1429 13.7143 10.1429V7.85714ZM16.8932 9.99978C16.3855 8.74537 15.155 7.85714 13.7143 7.85714V10.1429C14.1921 10.1429 14.6041 10.4365 14.7745 10.8574L16.8932 9.99978ZM16.1662 16.7143L8 16.7143L8 19L16.1662 19V16.7143ZM18.2857 18.1428C17.8079 18.1428 17.3959 17.8493 17.2255 17.4283L15.1068 18.286C15.6146 19.5403 16.845 20.4286 18.2857 20.4286V18.1428ZM19.3459 17.4283C19.1755 17.8493 18.7635 18.1428 18.2857 18.1428V20.4286C19.7264 20.4286 20.9569 19.5403 21.4646 18.286L19.3459 17.4283ZM24 16.7143H20.4053V19H24V16.7143ZM22.8571 16.1429V17.8571H25.1429V16.1429H22.8571ZM20.4053 17.2857H24V15L20.4053 15V17.2857ZM18.2857 15.8571C18.7635 15.8571 19.1755 16.1507 19.3459 16.5717L21.4646 15.714C20.9569 14.4596 19.7264 13.5714 18.2857 13.5714V15.8571ZM17.2255 16.5717C17.3959 16.1507 17.8079 15.8571 18.2857 15.8571V13.5714C16.845 13.5714 15.6145 14.4596 15.1068 15.714L17.2255 16.5717ZM8 17.2857L16.1661 17.2857V15L8 15L8 17.2857ZM9.14286 17.8571V16.1429H6.85714V17.8571H9.14286ZM6.85714 21.8571V23.5714H9.14286V21.8571H6.85714ZM11.5947 20.7143H8V23H11.5947V20.7143ZM12.6541 22.2859C12.8245 21.865 13.2365 21.5714 13.7143 21.5714V19.2857C12.2736 19.2857 11.0431 20.1739 10.5354 21.4283L12.6541 22.2859ZM13.7143 21.5714C14.1921 21.5714 14.6041 21.865 14.7745 22.2859L16.8932 21.4283C16.3855 20.1739 15.155 19.2857 13.7143 19.2857V21.5714ZM24 20.7143L15.8339 20.7143V23L24 23V20.7143ZM25.1429 23.5714V21.8571H22.8571V23.5714H25.1429ZM15.8339 24.7143L24 24.7143V22.4286L15.8339 22.4286V24.7143ZM14.7745 23.1426C14.6041 23.5635 14.1921 23.8571 13.7143 23.8571V26.1428C15.155 26.1428 16.3855 25.2546 16.8932 24.0002L14.7745 23.1426ZM13.7143 23.8571C13.2365 23.8571 12.8245 23.5635 12.6541 23.1426L10.5354 24.0002C11.0432 25.2546 12.2736 26.1428 13.7143 26.1428V23.8571ZM8 24.7143H11.5948V22.4286H8V24.7143Z" fill="white" mask="url(#path-2-inside-1_1560_3677)"/>
<circle cx="29.5" cy="4" r="3" fill="#2AEAEA" stroke="#17171B" stroke-width="2"/>
</svg>
