<svg width="45" height="45" viewBox="0 0 45 45" fill="none" xmlns="http://www.w3.org/2000/svg">
<g filter="url(#filter0_d_3026_4180)">
<circle cx="22.5" cy="24" r="16" fill="#2C2E34"/>
<path d="M22.3397 22.8971C23.7977 22.8971 24.9797 21.7115 24.9797 20.2489C24.9797 18.7863 23.7977 17.6006 22.3397 17.6006C20.8817 17.6006 19.6997 18.7863 19.6997 20.2489C19.6997 21.7115 20.8817 22.8971 22.3397 22.8971Z" fill="#454751"/>
<path d="M22.3401 24.2217C23.7404 24.2217 25.0834 24.71 26.0736 25.5791C27.0638 26.4482 27.6201 27.627 27.6201 28.8562V30.401H17.0601V28.8562C17.0601 27.627 17.6163 26.4482 18.6065 25.5791C19.5967 24.71 20.9397 24.2217 22.3401 24.2217V24.2217Z" fill="#454751"/>
</g>
<defs>
<filter id="filter0_d_3026_4180" x="0.74" y="0.96" width="43.52" height="43.52" filterUnits="userSpaceOnUse" color-interpolation-filters="sRGB">
<feFlood flood-opacity="0" result="BackgroundImageFix"/>
<feColorMatrix in="SourceAlpha" type="matrix" values="0 0 0 0 0 0 0 0 0 0 0 0 0 0 0 0 0 0 127 0" result="hardAlpha"/>
<feOffset dy="-1.28"/>
<feGaussianBlur stdDeviation="2.88"/>
<feComposite in2="hardAlpha" operator="out"/>
<feColorMatrix type="matrix" values="0 0 0 0 0.172549 0 0 0 0 0.180392 0 0 0 0 0.203922 0 0 0 0.2 0"/>
<feBlend mode="normal" in2="BackgroundImageFix" result="effect1_dropShadow_3026_4180"/>
<feBlend mode="normal" in="SourceGraphic" in2="effect1_dropShadow_3026_4180" result="shape"/>
</filter>
</defs>
</svg>
