<svg width="22" height="21" viewBox="0 0 22 21" fill="none" xmlns="http://www.w3.org/2000/svg">
<g clip-path="url(#clip0_111_4854)">
<path d="M11 0C4.92473 0 0 4.04523 0 9.03544C0 12.2837 2.08683 15.1299 5.2182 16.7227C4.98798 17.6156 4.38507 19.9561 4.26426 20.457C4.11553 21.0787 4.48366 21.0705 4.72471 20.9029C4.9139 20.772 7.73926 18.7767 8.95819 17.9152C9.6198 18.017 10.3019 18.0709 11 18.0709C17.0753 18.0709 22 14.0251 22 9.03544C22 4.04523 17.0753 0 11 0Z" fill="#391B1B"/>
<path d="M6.49187 6H3.5076C3.22683 6 3 6.26822 3 6.59881C3 6.92941 3.22736 7.19763 3.5076 7.19763H4.47786V11.4155C4.47786 11.569 4.53073 11.7199 4.62379 11.8291C4.71474 11.9376 4.84217 12 4.97277 12H5.08116C5.21124 12 5.33814 11.9376 5.42961 11.8291C5.52267 11.7199 5.57555 11.5696 5.57555 11.4155V7.19763H6.49187C6.77264 7.19763 7 6.92941 7 6.59881C7 6.26822 6.77264 6 6.49187 6Z" fill="#FAE300"/>
<path d="M14.5321 10.9209H13.1203V6.64513C13.1203 6.28852 12.8697 6 12.5604 6C12.2512 6 12 6.28852 12 6.64513V11.2539C12 11.2899 12.0038 11.3233 12.0086 11.3573C12.0032 11.3908 12 11.4254 12 11.4601C12 11.7585 12.2092 12 12.4684 12H14.5316C14.7913 12 15 11.7585 15 11.4601C15.0005 11.1623 14.7919 10.9209 14.5321 10.9209Z" fill="#FAE300"/>
<path d="M18.8951 11.0825L17.252 8.71989L18.7367 7.09398C18.9378 6.87445 18.9378 6.51717 18.7367 6.29702C18.5356 6.07687 18.2098 6.07687 18.0081 6.29702L16.1701 8.30911V6.64077C16.1701 6.28656 15.9083 6 15.5853 6C15.2623 6 15 6.28656 15 6.64077V11.3592C15 11.7134 15.2618 12 15.5853 12C15.9083 12 16.1701 11.7141 16.1701 11.3592V9.90366L16.5043 9.53838L18.0586 11.7706C18.2317 12.0234 18.5603 12.0756 18.7911 11.8844C19.022 11.6944 19.0686 11.3352 18.8951 11.0825Z" fill="#FAE300"/>
<path d="M11.9686 11.2357L10.301 6.50358C10.301 6.50358 10.2968 6.49989 10.2956 6.49805C10.1889 6.20967 9.88123 6 9.51426 6C9.10698 6 8.77025 6.25825 8.70326 6.59581C8.692 6.62102 8.68073 6.64623 8.67125 6.67329L7.03146 11.2357C6.93009 11.5351 7.08185 11.8622 7.36938 11.9674C7.6575 12.0725 7.97348 11.9151 8.07486 11.6163L8.35882 10.7764H10.6412L10.9246 11.6163C11.026 11.9151 11.342 12.0725 11.6301 11.9674C11.9176 11.8628 12.07 11.5351 11.9686 11.2357ZM8.72105 9.70401L9.48818 7.43389C9.49707 7.43389 9.50418 7.43635 9.51308 7.43635L10.2796 9.70401H8.72105Z" fill="#FAE300"/>
</g>
<defs>
<clipPath id="clip0_111_4854">
<rect width="22" height="21" fill="white"/>
</clipPath>
</defs>
</svg>
