<svg width="12" height="13" viewBox="0 0 12 13" fill="none" xmlns="http://www.w3.org/2000/svg">
<path d="M6.55806 11.1705C7.71123 10.2369 10.25 7.91828 10.25 5.59961C10.25 3.39047 8.34721 1.59961 6 1.59961C3.65279 1.59961 1.75 3.39047 1.75 5.59961C1.75 7.91828 4.28877 10.2369 5.44194 11.1705C5.77084 11.4368 6.22916 11.4368 6.55806 11.1705ZM6 7.34961C5.17157 7.34961 4.5 6.67804 4.5 5.84961C4.5 5.02118 5.17157 4.34961 6 4.34961C6.82843 4.34961 7.5 5.02118 7.5 5.84961C7.5 6.67804 6.82843 7.34961 6 7.34961Z" fill="white"/>
</svg>
