<svg width="14" height="14" viewBox="0 0 14 14" fill="none" xmlns="http://www.w3.org/2000/svg">
<g clip-path="url(#clip0_2184_5849)">
<path fill-rule="evenodd" clip-rule="evenodd" d="M7.19193 3.18589L1.90576 8.47205L1.18476 11.1612L0.710515 12.9328C0.697342 12.9823 0.697408 13.0344 0.710706 13.0838C0.724003 13.1333 0.750066 13.1784 0.786282 13.2146C0.822498 13.2508 0.867595 13.2769 0.917056 13.2902C0.966517 13.3035 1.0186 13.3036 1.0681 13.2904L2.83851 12.8156L5.52826 12.0946H5.52885L10.815 6.80838L7.19251 3.18589H7.19193ZM13.0008 3.79839L10.2031 1.00014C10.149 0.945917 10.0847 0.902904 10.0139 0.873556C9.94315 0.844208 9.86729 0.829102 9.79068 0.829102C9.71407 0.829102 9.63821 0.844208 9.56744 0.873556C9.49668 0.902904 9.43239 0.945917 9.37826 1.00014L7.93451 2.4433L11.5576 6.06639L13.0008 4.62264C13.055 4.56851 13.098 4.50422 13.1273 4.43346C13.1567 4.36269 13.1718 4.28683 13.1718 4.21022C13.1718 4.13361 13.1567 4.05775 13.1273 3.98698C13.098 3.91621 13.055 3.85193 13.0008 3.7978" fill="#BEC2C9"/>
</g>
<defs>
<clipPath id="clip0_2184_5849">
<rect width="14" height="14" fill="white"/>
</clipPath>
</defs>
</svg>
