<svg width="18" height="18" viewBox="0 0 18 18" fill="none" xmlns="http://www.w3.org/2000/svg">
<path d="M13.4533 7.93913C13.4533 5.10087 11.1524 2.8 8.31413 2.8C5.47587 2.8 3.175 5.10087 3.175 7.93913C3.175 10.7774 5.47587 13.0783 8.31413 13.0783C11.1524 13.0783 13.4533 10.7774 13.4533 7.93913ZM12.1429 13.1168C11.0727 13.9095 9.74817 14.3783 8.31413 14.3783C4.7579 14.3783 1.875 11.4954 1.875 7.93913C1.875 4.3829 4.7579 1.5 8.31413 1.5C11.8704 1.5 14.7533 4.3829 14.7533 7.93913C14.7533 9.5927 14.13 11.1007 13.1055 12.241L16.9296 16.0651L16.0104 16.9843L12.1429 13.1168Z" fill="#C3C3C6"/>
</svg>
