<svg width="42" height="42" viewBox="0 0 42 42" fill="none" xmlns="http://www.w3.org/2000/svg">
<circle cx="21" cy="21" r="21" fill="#2C2E34"/>
<path d="M20.7931 19.5523C22.7068 19.5523 24.2581 17.9961 24.2581 16.0765C24.2581 14.1568 22.7068 12.6006 20.7931 12.6006C18.8795 12.6006 17.3281 14.1568 17.3281 16.0765C17.3281 17.9961 18.8795 19.5523 20.7931 19.5523Z" fill="#454751"/>
<path d="M20.7913 21.29C22.6293 21.29 24.392 21.9309 25.6916 23.0716C26.9912 24.2124 27.7213 25.7596 27.7213 27.3728V29.4004H13.8613V27.3728C13.8613 25.7596 14.5915 24.2124 15.8911 23.0716C17.1907 21.9309 18.9534 21.29 20.7913 21.29V21.29Z" fill="#454751"/>
</svg>
