<svg width="24" height="24" viewBox="0 0 24 24" fill="none" xmlns="http://www.w3.org/2000/svg">
<path d="M11.9995 2.25098C6.61498 2.25098 2.24951 6.61645 2.24951 12.001C2.24951 17.3771 6.62389 21.751 11.9995 21.751C17.3836 21.751 21.7495 17.385 21.7495 12.001C21.7495 6.62488 17.3756 2.25098 11.9995 2.25098ZM17.062 13.501H11.437C11.3873 13.501 11.3396 13.4812 11.3044 13.4461C11.2693 13.4109 11.2495 13.3632 11.2495 13.3135V5.43848C11.2495 5.38875 11.2693 5.34106 11.3044 5.30589C11.3396 5.27073 11.3873 5.25098 11.437 5.25098H12.562C12.6117 5.25098 12.6594 5.27073 12.6946 5.30589C12.7298 5.34106 12.7495 5.38875 12.7495 5.43848V12.001H17.062C17.1117 12.001 17.1594 12.0207 17.1946 12.0559C17.2298 12.0911 17.2495 12.1388 17.2495 12.1885V13.3135C17.2495 13.3632 17.2298 13.4109 17.1946 13.4461C17.1594 13.4812 17.1117 13.501 17.062 13.501Z" fill="#2AEAEA"/>
</svg>
