<svg width="24" height="24" viewBox="0 0 24 24" fill="none" xmlns="http://www.w3.org/2000/svg">
<path d="M11.9995 1.5C7.85904 1.5 4.49951 4.52391 4.49951 8.25C4.49951 14.25 11.9995 22.5 11.9995 22.5C11.9995 22.5 19.4995 14.25 19.4995 8.25C19.4995 4.52391 16.14 1.5 11.9995 1.5ZM11.9995 12C11.4062 12 10.8261 11.8241 10.3328 11.4944C9.83945 11.1648 9.45494 10.6962 9.22787 10.1481C9.00081 9.59987 8.9414 8.99667 9.05716 8.41473C9.17291 7.83279 9.45863 7.29824 9.87819 6.87868C10.2977 6.45912 10.8323 6.1734 11.4142 6.05764C11.9962 5.94189 12.5994 6.0013 13.1476 6.22836C13.6957 6.45542 14.1643 6.83994 14.4939 7.33329C14.8236 7.82664 14.9995 8.40666 14.9995 9C14.9986 9.79538 14.6823 10.5579 14.1199 11.1204C13.5575 11.6828 12.7949 11.9991 11.9995 12Z" fill="#2AEAEA"/>
</svg>
