<svg width="24" height="24" viewBox="0 0 24 24" fill="none" xmlns="http://www.w3.org/2000/svg">
<path d="M19.9685 12.4689C19.4797 12.4695 19.0015 12.6114 18.5914 12.8775C18.1814 13.1437 17.8571 13.5227 17.6576 13.9689H16.4932L15.2276 10.1721C15.1576 9.96356 15.0228 9.78288 14.8428 9.65643C14.6629 9.52997 14.4472 9.46436 14.2273 9.46918C14.0074 9.47399 13.7949 9.54899 13.6206 9.6832C13.4464 9.81741 13.3196 10.0038 13.2588 10.2152L11.5151 16.3183L9.26507 3.11176C9.22513 2.87897 9.1065 2.66694 8.929 2.51113C8.7515 2.35531 8.52589 2.26515 8.28989 2.25571C8.05389 2.24627 7.8218 2.31812 7.63242 2.45926C7.44304 2.60041 7.30785 2.80228 7.24945 3.03113L4.44444 13.9689H1.49976V16.0314H5.24976C5.47969 16.0314 5.70302 15.9546 5.88426 15.8131C6.0655 15.6716 6.19426 15.4736 6.25007 15.2505L8.04773 8.06269L10.2326 20.8886C10.2708 21.1198 10.3865 21.3312 10.5609 21.4878C10.7352 21.6444 10.9577 21.7369 11.1916 21.7502C11.2113 21.7502 11.2301 21.7502 11.2498 21.7502C11.4741 21.75 11.6923 21.6767 11.8712 21.5414C12.0501 21.406 12.18 21.216 12.2412 21.0002L14.3257 13.9868L14.7715 15.3283C14.8403 15.5333 14.9717 15.7114 15.1473 15.8376C15.3228 15.9638 15.5336 16.0316 15.7498 16.0314H17.6576C17.8432 16.4474 18.1376 16.8057 18.5097 17.0683C18.8819 17.331 19.3181 17.4883 19.7722 17.5238C20.2263 17.5592 20.6816 17.4715 21.0901 17.2698C21.4985 17.0681 21.8449 16.7599 22.0928 16.3777C22.3407 15.9956 22.4809 15.5536 22.4986 15.0984C22.5163 14.6432 22.4108 14.1917 22.1933 13.7915C21.9757 13.3913 21.6543 13.0572 21.2627 12.8244C20.8711 12.5916 20.424 12.4688 19.9685 12.4689Z" fill="#2AEAEA"/>
</svg>
